<svg width="29" height="30" viewBox="0 0 29 30" fill="none" xmlns="http://www.w3.org/2000/svg">
<g clip-path="url(#clip0_31_74)">
<path d="M14.5 0C6.49238 0 0 6.71625 0 15C0 23.2837 6.49238 30 14.5 30C22.5076 30 29 23.2837 29 15C29 6.71625 22.5076 0 14.5 0ZM21.8298 12.0563C22.0509 17.1063 18.4102 22.7362 11.9649 22.7362C10.005 22.7362 8.18163 22.1413 6.64583 21.1225C8.48733 21.3475 10.3252 20.8175 11.7837 19.6362C10.266 19.6075 8.98396 18.5687 8.5405 17.1425C9.08546 17.25 9.62196 17.2187 10.1089 17.0812C8.44021 16.7337 7.28746 15.1788 7.32492 13.515C7.79375 13.7838 8.32783 13.945 8.89696 13.9637C7.3515 12.895 6.91408 10.7837 7.82275 9.17C9.53375 11.3425 12.0918 12.7712 14.9761 12.9212C14.4698 10.6762 16.1168 8.5125 18.3582 8.5125C19.3551 8.5125 20.2577 8.94875 20.8909 9.64625C21.6811 9.48625 22.4255 9.18625 23.0949 8.775C22.8351 9.61375 22.2853 10.3163 21.5688 10.7613C22.2708 10.6738 22.9402 10.4813 23.5613 10.195C23.0973 10.9175 22.51 11.55 21.8298 12.0563V12.0563Z" fill="white"/>
</g>
<defs>
<clipPath id="clip0_31_74">
<rect width="29" height="30" fill="white"/>
</clipPath>
</defs>
</svg>
